<?xml version="1.0" encoding="iso-8859-1"?>
<!-- Generator: Adobe Illustrator 19.0.0, SVG Export Plug-In . SVG Version: 6.00 Build 0)  -->
<svg version="1.1" id="Layer_1" xmlns="http://www.w3.org/2000/svg" xmlns:xlink="http://www.w3.org/1999/xlink" x="0px" y="0px"
	 viewBox="0 0 512 512" style="enable-background:new 0 0 512 512;" xml:space="preserve">
<g>
	<g>
		<path d="M394.035,173.807C382.754,122.027,336.768,83.2,281.6,83.2c-46.362,0-86.059,27.546-104.337,67.021
			c-7.629-1.809-15.479-3.021-23.663-3.021c-56.559,0-102.4,45.85-102.4,102.4c0,2.91,0.614,5.641,0.853,8.491
			C21.393,272.316,0,303.172,0,339.2c0,49.485,40.115,89.6,89.6,89.6H384c70.69,0,128-57.31,128-128
			C512,233.549,459.955,179.012,394.035,173.807z M384,403.2H89.6c-35.285,0-64-28.715-64-64c0-24.67,14.618-47.394,37.231-57.89
			l16.222-7.526l-1.485-17.826c-0.128-1.536-0.324-3.046-0.529-4.548c-0.085-0.657-0.205-1.297-0.239-1.809
			c0-42.351,34.449-76.8,76.8-76.8c5.35,0,11.162,0.76,17.749,2.33l20.361,4.838l8.789-18.987
			c14.669-31.693,46.507-52.173,81.101-52.173c41.762,0,78.524,29.636,87.424,70.46l4.045,18.577l18.953,1.493
			c52.924,4.173,94.379,48.742,94.379,101.461C486.4,357.265,440.465,403.2,384,403.2z"/>
	</g>
</g>
<g>
</g>
<g>
</g>
<g>
</g>
<g>
</g>
<g>
</g>
<g>
</g>
<g>
</g>
<g>
</g>
<g>
</g>
<g>
</g>
<g>
</g>
<g>
</g>
<g>
</g>
<g>
</g>
<g>
</g>
</svg>
