<?xml version="1.0" encoding="utf-8"?>
<!-- Generator: Adobe Illustrator 16.0.0, SVG Export Plug-In . SVG Version: 6.00 Build 0)  -->
<!DOCTYPE svg PUBLIC "-//W3C//DTD SVG 1.1//EN" "http://www.w3.org/Graphics/SVG/1.1/DTD/svg11.dtd">
<svg version="1.1" id="Layer_1" xmlns="http://www.w3.org/2000/svg" xmlns:xlink="http://www.w3.org/1999/xlink" x="0px" y="0px"
	 width="512px" height="512px" viewBox="0 0 512 512" enable-background="new 0 0 512 512" xml:space="preserve">
<path d="M442.656,150.156v0.031C446.031,143.063,448,135.625,448,128V96c0-53-85.969-96-192-96S64,43,64,96
	c0-2.625,0.375-5.188,0.781-7.75C25.125,105.813,0,131.438,0,160v32c0,29.688,27,56.219,69.344,73.813l0,0
	C65.969,272.938,64,280.375,64,288v32c0,11.25,4.063,21.969,11.188,32C68.063,362.031,64,372.75,64,384v32c0,53,85.969,96,192,96
	s192-43,192-96v-32c0-11.438-4.219-22.344-11.531-32.5c-0.063,0.063-0.125,0.156-0.188,0.219
	c5.375-7.625,9.594-15.563,10.938-23.969C486.875,310.156,512,284.563,512,256v-32C512,194.313,485,167.75,442.656,150.156z M256,16
	c103.719,0,176,42.156,176,80c0,37.813-72.281,80-176,80S80,133.813,80,96C80,58.156,152.281,16,256,16z M16,160
	c0-18.688,17.719-38.344,48-53.531V128c0,53,85.969,96,192,96c15.844,0,31.156-1.063,45.875-2.875
	C272.531,232.406,235.25,240,192,240C88.281,240,16,197.813,16,160z M432,384c0,37.813-72.281,80-176,80S80,421.813,80,384
	c0-6.281,2.688-12.656,6.469-18.969c-0.031-0.031-0.094-0.094-0.125-0.156C118.563,395.281,182.438,416,256,416
	c73.656,0,137.219-20.875,169.375-51.344c-0.031,0.031-0.031,0.031-0.063,0.063C429.25,371.125,432,377.594,432,384z
	 M365.938,349.125C336.563,360.438,299.281,368,256,368c-103.719,0-176-42.188-176-80c0-5.438,1.875-10.938,4.719-16.375
	c15.688,5.281,33.031,9.438,51.563,12.219C160.156,323.281,233.344,352,320,352c15.906,0,31.281-1.063,46.063-2.906
	C366.031,349.094,366,349.125,365.938,349.125z M320,304c-41.063,0-76.875-6.75-105.563-17.094
	c90.219-5.313,161.469-41.531,168.781-87.156c21.781-9.656,39.219-21.688,50.438-35.375c-0.031,0-0.031,0-0.031,0
	C472.375,180.125,496,202.625,496,224C496,261.813,423.719,304,320,304z M290.188,119.313c0-3.375-2.688-5.969-8.063-7.688
	c-5.375-1.75-17.344-4-35.875-6.688c-16.656-2.344-29.688-4.688-39.063-7s-17-5.563-22.844-9.688
	c-5.844-4.188-8.781-9.063-8.781-14.563c0-7.25,5.25-13.813,15.688-19.625c10.438-5.781,26.875-9.313,49.313-10.625V32h30.313
	v11.438c33.875,1.688,55.813,9.5,65.781,23.563l-41.75,7c-8.156-9.625-20.719-14.438-37.781-14.438
	c-8.563,0-15.438,1.063-20.594,3.25c-5.188,2.125-7.781,4.75-7.781,7.813c0,3.125,2.5,5.5,7.5,7.188
	c4.969,1.656,15.688,3.688,32.063,6.188c18,2.688,32.125,5.219,42.344,7.625c10.25,2.375,18.406,5.688,24.531,9.906
	c6.094,4.219,9.156,9.156,9.156,14.781c0,8.688-6.313,15.875-18.906,21.656s-30.781,9.188-54.563,10.219V163h-30.313v-14.75
	c-39.656-1.656-64.188-11.125-73.656-28.313l46.875-5c4.344,10.813,18.719,16.219,43.125,16.219c11.406,0,19.844-1.156,25.219-3.469
	S290.188,122.594,290.188,119.313z"/>
</svg>
