
<?xml version="1.0" encoding="iso-8859-1"?>
<!-- Generator: Adobe Illustrator 19.0.0, SVG Export Plug-In . SVG Version: 6.00 Build 0)  -->
<svg version="1.1" id="Layer_1" xmlns="http://www.w3.org/2000/svg" xmlns:xlink="http://www.w3.org/1999/xlink" x="0px" y="0px"
	 viewBox="0 0 512 512" style="enable-background:new 0 0 512 512;" xml:space="preserve">
<g>
	<g>
		<path d="M310.511,325.188c-8.883-7.39-22.912-13.764-42.82-19.465v-70.298c7.074,0.879,12.954,3.004,17.485,6.298
			c6.946,5.171,10.573,12.774,11.076,22.997c0,4.147,1.297,7.552,3.891,10.146c4.89,4.847,12.962,4.403,16.964-0.026
			c2.551-2.603,3.849-5.999,3.849-10.129c0-15.326-5.316-27.921-15.838-37.453c-9.6-8.499-22.178-13.449-37.427-14.729V201.31
			c0-6.699-4.096-10.726-10.974-10.726c-6.699,0-10.701,4.028-10.701,10.726v11.204c-15.3,1.126-28.134,6.076-38.212,14.729
			c-11.989,10.428-18.065,24.422-18.065,41.6c0,14.848,5.436,26.999,16.162,36.096c9.003,7.748,22.153,13.722,40.115,18.253v75.554
			c-10.351-1.527-18.56-4.727-24.422-9.574c-8.678-7.347-12.809-18.048-12.638-32.751c0-4.147-1.212-7.475-3.439-9.702
			c-4.378-4.898-12.51-4.753-16.589-0.154c-2.372,2.372-3.575,5.7-3.575,9.847c0,23.279,7.049,40.627,21.009,51.652
			c9.387,7.049,22.716,11.597,39.646,13.577v16.572c0,6.878,4.002,10.974,10.701,10.974c6.878,0,10.974-4.096,10.974-10.974v-16.273
			c15.872-1.826,29.449-7.45,40.388-16.802c12.74-10.948,19.191-25.148,19.191-42.146
			C327.262,347.017,321.621,334.293,310.511,325.188z M246.016,299.75c-10.837-3.302-18.765-7.475-23.612-12.45
			c-5.171-5.325-7.689-11.998-7.689-20.378c0-10.172,3.814-17.971,11.622-23.825c5.521-4.096,12.126-6.724,19.678-7.851V299.75z
			 M289.024,389.828c-6.05,4.471-13.21,7.45-21.333,8.849v-69.103c12.638,3.524,21.376,7.398,26.01,11.597
			c5.513,4.873,8.311,12.774,8.311,23.475C302.012,375.322,297.779,383.548,289.024,389.828z"/>
	</g>
</g>
<g>
	<g>
		<path d="M414.242,224.862c-18.526-25.259-48.094-62.473-74.923-82.628l42.24-105.6c1.604-3.337,2.509-7.083,2.509-11.034
			c0-14.131-11.383-25.591-25.515-25.6c-0.051,0-0.102,0-0.154,0c-0.538,0-1.075,0.017-1.621,0.051
			c-3.618,0.23-7.031,1.203-10.086,2.782C342.647,4.779,298.428,25.6,256,25.6c-44.288,0-90.522-22.69-90.982-22.912
			c-3.618-1.792-7.518-2.671-11.392-2.671c-6.306,0-12.535,2.321-17.374,6.784c-7.799,7.202-10.368,18.458-6.426,28.314
			l42.846,107.127c-26.829,20.156-56.397,57.37-74.923,82.628C70.81,261.606,25.6,331.145,25.6,384c0,70.579,57.421,128,128,128
			h204.8c70.579,0,128-57.421,128-128C486.4,331.145,441.19,261.606,414.242,224.862z M153.6,25.6c0,0,51.2,25.6,102.4,25.6
			s102.4-25.6,102.4-25.6L317.44,128H194.56L153.6,25.6z M358.4,486.4H153.6c-56.559,0-102.4-45.85-102.4-102.4
			c0-76.8,128-230.4,153.6-230.4h102.4c25.6,0,153.6,153.6,153.6,230.4C460.8,440.55,414.959,486.4,358.4,486.4z"/>
	</g>
</g>
<g>
</g>
<g>
</g>
<g>
</g>
<g>
</g>
<g>
</g>
<g>
</g>
<g>
</g>
<g>
</g>
<g>
</g>
<g>
</g>
<g>
</g>
<g>
</g>
<g>
</g>
<g>
</g>
<g>
</g>
</svg>
